<svg xmlns="http://www.w3.org/2000/svg" xmlns:xlink="http://www.w3.org/1999/xlink" width="48" zoomAndPan="magnify" viewBox="0 0 36 36.000001" height="48" preserveAspectRatio="xMidYMid meet" version="1.0"><defs><clipPath id="4aa6c7f563"><path d="M 15 11 L 29.554688 11 L 29.554688 28.554688 L 15 28.554688 Z M 15 11 " clip-rule="nonzero"/></clipPath><clipPath id="839b2950de"><path d="M 6.203125 7 L 23 7 L 23 25 L 6.203125 25 Z M 6.203125 7 " clip-rule="nonzero"/></clipPath></defs><g clip-path="url(#4aa6c7f563)"><path fill="#000000" d="M 29.511719 28.011719 L 28.019531 23.566406 C 28.320312 23.03125 28.558594 22.46875 28.734375 21.878906 C 28.910156 21.289062 29.015625 20.683594 29.058594 20.070312 C 29.101562 19.453125 29.078125 18.84375 28.984375 18.234375 C 28.890625 17.625 28.734375 17.03125 28.511719 16.460938 C 28.289062 15.886719 28.003906 15.347656 27.664062 14.835938 C 27.320312 14.328125 26.925781 13.867188 26.480469 13.449219 C 26.039062 13.03125 25.550781 12.667969 25.027344 12.359375 C 24.503906 12.050781 23.953125 11.808594 23.375 11.625 C 23.53125 11.984375 23.667969 12.347656 23.785156 12.722656 C 23.898438 13.097656 23.992188 13.476562 24.0625 13.863281 C 24.128906 14.246094 24.175781 14.636719 24.199219 15.027344 C 24.21875 15.417969 24.21875 15.808594 24.191406 16.199219 C 24.167969 16.589844 24.117188 16.980469 24.046875 17.363281 C 23.972656 17.75 23.878906 18.128906 23.761719 18.5 C 23.644531 18.875 23.503906 19.238281 23.339844 19.59375 C 23.179688 19.949219 22.996094 20.292969 22.792969 20.625 C 22.585938 20.957031 22.363281 21.277344 22.121094 21.578125 C 21.878906 21.882812 21.621094 22.171875 21.34375 22.445312 C 21.066406 22.714844 20.773438 22.96875 20.464844 23.203125 C 20.15625 23.4375 19.835938 23.652344 19.5 23.847656 C 19.167969 24.042969 18.824219 24.214844 18.46875 24.367188 C 18.113281 24.515625 17.75 24.644531 17.382812 24.75 C 17.011719 24.855469 16.636719 24.9375 16.253906 24.996094 C 15.875 25.054688 15.492188 25.089844 15.109375 25.101562 C 15.71875 25.765625 16.421875 26.316406 17.210938 26.742188 C 18 27.171875 18.839844 27.460938 19.722656 27.605469 C 20.609375 27.75 21.492188 27.746094 22.375 27.589844 C 23.257812 27.4375 24.089844 27.140625 24.878906 26.703125 L 29.128906 28.386719 C 29.246094 28.433594 29.347656 28.410156 29.4375 28.324219 C 29.527344 28.234375 29.550781 28.132812 29.511719 28.011719 Z M 29.511719 28.011719 " fill-opacity="1" fill-rule="nonzero"/></g><g clip-path="url(#839b2950de)"><path fill="#000000" d="M 22.921875 15.566406 C 22.921875 15.25 22.902344 14.9375 22.867188 14.625 C 22.828125 14.3125 22.777344 14 22.703125 13.695312 C 22.632812 13.390625 22.542969 13.085938 22.4375 12.792969 C 22.332031 12.496094 22.210938 12.207031 22.070312 11.925781 C 21.933594 11.644531 21.78125 11.371094 21.609375 11.105469 C 21.441406 10.84375 21.257812 10.589844 21.0625 10.347656 C 20.863281 10.105469 20.652344 9.875 20.429688 9.65625 C 20.203125 9.441406 19.96875 9.238281 19.722656 9.046875 C 19.476562 8.855469 19.21875 8.683594 18.953125 8.523438 C 18.6875 8.363281 18.414062 8.21875 18.128906 8.089844 C 17.847656 7.964844 17.558594 7.851562 17.261719 7.757812 C 16.96875 7.664062 16.667969 7.589844 16.363281 7.53125 C 16.058594 7.472656 15.753906 7.429688 15.445312 7.40625 C 15.136719 7.386719 14.828125 7.378906 14.519531 7.394531 C 14.210938 7.40625 13.902344 7.4375 13.597656 7.488281 C 13.292969 7.539062 12.992188 7.605469 12.695312 7.691406 C 12.394531 7.773438 12.105469 7.875 11.816406 7.996094 C 11.53125 8.113281 11.253906 8.25 10.980469 8.402344 C 10.710938 8.554688 10.449219 8.722656 10.195312 8.902344 C 9.945312 9.085938 9.703125 9.28125 9.472656 9.492188 C 9.242188 9.703125 9.027344 9.925781 8.820312 10.164062 C 8.617188 10.398438 8.425781 10.648438 8.25 10.90625 C 8.074219 11.164062 7.910156 11.433594 7.765625 11.710938 C 7.617188 11.988281 7.488281 12.273438 7.375 12.566406 C 7.261719 12.855469 7.164062 13.15625 7.082031 13.460938 C 7 13.765625 6.9375 14.070312 6.894531 14.382812 C 6.847656 14.695312 6.820312 15.007812 6.808594 15.324219 C 6.796875 15.636719 6.804688 15.953125 6.832031 16.265625 C 6.855469 16.582031 6.898438 16.890625 6.960938 17.199219 C 7.019531 17.511719 7.097656 17.8125 7.191406 18.113281 C 7.289062 18.414062 7.398438 18.707031 7.527344 18.992188 C 7.65625 19.28125 7.796875 19.558594 7.957031 19.828125 L 7.441406 21.367188 L 6.617188 23.835938 C 6.578125 23.957031 6.601562 24.0625 6.691406 24.148438 C 6.78125 24.234375 6.882812 24.257812 7 24.210938 L 9.363281 23.277344 L 10.828125 22.695312 C 11.847656 23.292969 12.945312 23.648438 14.117188 23.761719 C 14.363281 23.78125 14.613281 23.792969 14.863281 23.792969 C 15.394531 23.792969 15.917969 23.742188 16.4375 23.636719 C 16.957031 23.53125 17.460938 23.375 17.953125 23.167969 C 18.441406 22.960938 18.90625 22.707031 19.347656 22.40625 C 19.785156 22.105469 20.195312 21.765625 20.566406 21.382812 C 20.941406 21 21.277344 20.585938 21.570312 20.136719 C 21.863281 19.6875 22.113281 19.210938 22.3125 18.714844 C 22.515625 18.214844 22.667969 17.699219 22.769531 17.171875 C 22.875 16.640625 22.925781 16.105469 22.921875 15.566406 Z M 15.875 17.460938 C 15.875 17.640625 15.8125 17.792969 15.6875 17.921875 C 15.5625 18.050781 15.414062 18.113281 15.234375 18.113281 L 11.15625 18.113281 C 10.980469 18.109375 10.832031 18.046875 10.707031 17.917969 C 10.585938 17.792969 10.523438 17.640625 10.523438 17.460938 L 10.523438 17.398438 C 10.523438 17.21875 10.585938 17.0625 10.710938 16.9375 C 10.835938 16.808594 10.988281 16.746094 11.164062 16.746094 L 15.234375 16.746094 C 15.414062 16.746094 15.5625 16.808594 15.6875 16.9375 C 15.8125 17.0625 15.875 17.21875 15.875 17.398438 Z M 18.960938 14.589844 C 18.960938 14.769531 18.898438 14.925781 18.773438 15.050781 C 18.648438 15.179688 18.496094 15.242188 18.320312 15.242188 L 11.019531 15.242188 C 10.84375 15.242188 10.691406 15.179688 10.566406 15.050781 C 10.441406 14.925781 10.378906 14.769531 10.378906 14.589844 L 10.378906 14.53125 C 10.378906 14.351562 10.445312 14.199219 10.570312 14.070312 C 10.695312 13.945312 10.84375 13.882812 11.019531 13.882812 L 18.320312 13.882812 C 18.496094 13.882812 18.648438 13.945312 18.773438 14.074219 C 18.898438 14.199219 18.960938 14.355469 18.960938 14.535156 Z M 18.960938 14.589844 " fill-opacity="1" fill-rule="nonzero"/></g></svg>