<svg xmlns="http://www.w3.org/2000/svg" xmlns:xlink="http://www.w3.org/1999/xlink" width="48" zoomAndPan="magnify" viewBox="0 0 36 36.000001" height="48" preserveAspectRatio="xMidYMid meet" version="1.0"><defs><clipPath id="6b7d3cb428"><path d="M 7.992188 11 L 16 11 L 16 14 L 7.992188 14 Z M 7.992188 11 " clip-rule="nonzero"/></clipPath><clipPath id="0884949c18"><path d="M 7.992188 22 L 16 22 L 16 24 L 7.992188 24 Z M 7.992188 22 " clip-rule="nonzero"/></clipPath><clipPath id="e64a986f13"><path d="M 10 7.84375 L 13 7.84375 L 13 9 L 10 9 Z M 10 7.84375 " clip-rule="nonzero"/></clipPath><clipPath id="4ecacca177"><path d="M 10 27 L 13 27 L 13 27.546875 L 10 27.546875 Z M 10 27 " clip-rule="nonzero"/></clipPath><clipPath id="42d0f6e41a"><path d="M 17 16 L 27.695312 16 L 27.695312 27.546875 L 17 27.546875 Z M 17 16 " clip-rule="nonzero"/></clipPath></defs><g clip-path="url(#6b7d3cb428)"><path fill="#000000" d="M 15.222656 11.59375 L 15.222656 13.097656 C 15.222656 13.160156 15.191406 13.191406 15.128906 13.191406 L 8.082031 13.191406 C 8.023438 13.191406 7.992188 13.160156 7.992188 13.097656 L 7.992188 11.59375 C 7.988281 11.527344 8.019531 11.496094 8.082031 11.496094 L 15.128906 11.496094 C 15.191406 11.496094 15.222656 11.527344 15.222656 11.59375 Z M 15.222656 11.59375 " fill-opacity="1" fill-rule="nonzero"/></g><path fill="#000000" d="M 13.714844 9.640625 L 13.714844 10.761719 L 9.5 10.761719 L 9.5 9.640625 C 9.5 9.480469 9.554688 9.347656 9.664062 9.234375 C 9.769531 9.121094 9.902344 9.066406 10.054688 9.066406 L 13.15625 9.066406 C 13.3125 9.066406 13.441406 9.121094 13.550781 9.234375 C 13.660156 9.347656 13.714844 9.480469 13.714844 9.640625 Z M 13.714844 9.640625 " fill-opacity="1" fill-rule="nonzero"/><g clip-path="url(#0884949c18)"><path fill="#000000" d="M 15.222656 22.289062 L 15.222656 23.796875 C 15.222656 23.859375 15.191406 23.890625 15.128906 23.890625 L 8.082031 23.890625 C 8.023438 23.890625 7.992188 23.859375 7.992188 23.796875 L 7.992188 22.289062 C 7.992188 22.226562 8.019531 22.195312 8.082031 22.195312 L 15.128906 22.195312 C 15.191406 22.195312 15.222656 22.226562 15.222656 22.289062 Z M 15.222656 22.289062 " fill-opacity="1" fill-rule="nonzero"/></g><path fill="#000000" d="M 13.714844 24.628906 L 13.714844 25.75 C 13.714844 25.90625 13.660156 26.042969 13.550781 26.15625 C 13.441406 26.269531 13.3125 26.324219 13.15625 26.324219 L 10.054688 26.324219 C 9.902344 26.324219 9.769531 26.265625 9.660156 26.15625 C 9.554688 26.042969 9.5 25.90625 9.5 25.746094 L 9.5 24.628906 Z M 13.714844 24.628906 " fill-opacity="1" fill-rule="nonzero"/><path fill="#000000" d="M 10.699219 13.925781 L 12.511719 13.925781 L 12.511719 21.460938 L 10.699219 21.460938 Z M 10.699219 13.925781 " fill-opacity="1" fill-rule="nonzero"/><g clip-path="url(#e64a986f13)"><path fill="#000000" d="M 12.34375 8.332031 L 10.867188 8.332031 C 11.015625 8.011719 11.261719 7.851562 11.605469 7.851562 C 11.949219 7.851562 12.195312 8.011719 12.34375 8.332031 Z M 12.34375 8.332031 " fill-opacity="1" fill-rule="nonzero"/></g><g clip-path="url(#4ecacca177)"><path fill="#000000" d="M 12.34375 27.058594 C 12.195312 27.378906 11.949219 27.539062 11.605469 27.539062 C 11.261719 27.539062 11.015625 27.378906 10.867188 27.058594 Z M 12.34375 27.058594 " fill-opacity="1" fill-rule="nonzero"/></g><g clip-path="url(#42d0f6e41a)"><path fill="#000000" d="M 27.695312 22.207031 C 27.695312 22.554688 27.660156 22.902344 27.59375 23.246094 C 27.527344 23.589844 27.429688 23.921875 27.300781 24.246094 C 27.171875 24.570312 27.011719 24.878906 26.824219 25.167969 C 26.636719 25.460938 26.425781 25.730469 26.183594 25.976562 C 25.945312 26.222656 25.683594 26.445312 25.402344 26.640625 C 25.121094 26.832031 24.824219 26.996094 24.511719 27.132812 C 24.199219 27.265625 23.878906 27.367188 23.546875 27.433594 C 23.214844 27.503906 22.878906 27.539062 22.542969 27.539062 C 22.203125 27.539062 21.867188 27.503906 21.535156 27.433594 C 21.207031 27.367188 20.882812 27.265625 20.570312 27.132812 C 20.257812 26.996094 19.960938 26.832031 19.679688 26.640625 C 19.398438 26.445312 19.136719 26.222656 18.898438 25.976562 C 18.660156 25.730469 18.445312 25.460938 18.257812 25.167969 C 18.070312 24.878906 17.910156 24.570312 17.78125 24.246094 C 17.652344 23.921875 17.554688 23.589844 17.488281 23.246094 C 17.421875 22.902344 17.390625 22.554688 17.390625 22.207031 C 17.390625 21.855469 17.421875 21.507812 17.488281 21.167969 C 17.554688 20.824219 17.652344 20.488281 17.78125 20.167969 C 17.910156 19.84375 18.070312 19.535156 18.257812 19.246094 C 18.445312 18.953125 18.660156 18.683594 18.898438 18.4375 C 19.136719 18.1875 19.398438 17.96875 19.679688 17.773438 C 19.960938 17.578125 20.257812 17.414062 20.570312 17.28125 C 20.882812 17.148438 21.207031 17.046875 21.535156 16.976562 C 21.867188 16.910156 22.203125 16.875 22.542969 16.875 C 22.878906 16.875 23.214844 16.910156 23.546875 16.976562 C 23.878906 17.046875 24.199219 17.148438 24.511719 17.28125 C 24.824219 17.414062 25.121094 17.578125 25.402344 17.773438 C 25.683594 17.96875 25.945312 18.1875 26.183594 18.4375 C 26.425781 18.683594 26.636719 18.953125 26.824219 19.246094 C 27.011719 19.535156 27.171875 19.84375 27.300781 20.167969 C 27.429688 20.488281 27.527344 20.824219 27.59375 21.167969 C 27.660156 21.507812 27.695312 21.855469 27.695312 22.207031 Z M 27.695312 22.207031 " fill-opacity="1" fill-rule="nonzero"/></g><path fill="#000000" d="M 24.546875 16.507812 C 23.210938 16.003906 21.871094 16.003906 20.535156 16.507812 L 20.988281 15.054688 L 24.09375 15.054688 Z M 24.546875 16.507812 " fill-opacity="1" fill-rule="nonzero"/></svg>