<svg xmlns="http://www.w3.org/2000/svg" xmlns:xlink="http://www.w3.org/1999/xlink" width="48" zoomAndPan="magnify" viewBox="0 0 36 36.000001" height="48" preserveAspectRatio="xMidYMid meet" version="1.0"><defs><clipPath id="82e8c7e615"><path d="M 18 8.757812 L 26 8.757812 L 26 17 L 18 17 Z M 18 8.757812 " clip-rule="nonzero"/></clipPath><clipPath id="4f2c9fa8a1"><path d="M 21 16 L 29.796875 16 L 29.796875 24 L 21 24 Z M 21 16 " clip-rule="nonzero"/></clipPath><clipPath id="37ba70bf34"><path d="M 10 8.757812 L 18 8.757812 L 18 17 L 10 17 Z M 10 8.757812 " clip-rule="nonzero"/></clipPath><clipPath id="549a00ca17"><path d="M 6.445312 16 L 15 16 L 15 24 L 6.445312 24 Z M 6.445312 16 " clip-rule="nonzero"/></clipPath><clipPath id="4eec7748e1"><path d="M 10 11 L 27 11 L 27 26.273438 L 10 26.273438 Z M 10 11 " clip-rule="nonzero"/></clipPath></defs><g clip-path="url(#82e8c7e615)"><path fill="#232c33" d="M 25.261719 11.128906 C 24.757812 9.746094 23.414062 8.761719 21.847656 8.761719 C 20.429688 8.761719 19.207031 9.5625 18.609375 10.730469 C 20.855469 10.976562 22.609375 12.863281 22.609375 15.152344 C 22.609375 15.660156 22.519531 16.195312 22.359375 16.707031 C 24.121094 16.339844 25.476562 14.167969 25.476562 12.355469 C 25.480469 11.925781 25.398438 11.511719 25.261719 11.128906 " fill-opacity="1" fill-rule="nonzero"/></g><g clip-path="url(#4f2c9fa8a1)"><path fill="#232c33" d="M 25.039062 16.472656 C 24.859375 16.40625 24.65625 16.453125 24.523438 16.585938 C 23.804688 17.292969 22.90625 17.761719 21.910156 17.78125 C 21.789062 18.007812 21.65625 18.230469 21.503906 18.4375 C 21.539062 18.445312 21.570312 18.457031 21.601562 18.46875 C 23.960938 19.316406 25.746094 21.195312 26.511719 23.472656 L 29.511719 23.472656 C 29.667969 23.472656 29.796875 23.347656 29.796875 23.191406 C 29.796875 20.101562 27.816406 17.46875 25.039062 16.472656 Z M 25.039062 16.472656 " fill-opacity="1" fill-rule="nonzero"/></g><g clip-path="url(#37ba70bf34)"><path fill="#232c33" d="M 10.980469 11.128906 C 11.484375 9.746094 12.824219 8.761719 14.390625 8.761719 C 15.808594 8.761719 17.03125 9.5625 17.628906 10.730469 C 15.382812 10.976562 13.632812 12.863281 13.632812 15.152344 C 13.632812 15.660156 13.71875 16.195312 13.878906 16.707031 C 12.117188 16.339844 10.765625 14.167969 10.765625 12.355469 C 10.757812 11.925781 10.839844 11.511719 10.980469 11.128906 " fill-opacity="1" fill-rule="nonzero"/></g><g clip-path="url(#549a00ca17)"><path fill="#232c33" d="M 11.199219 16.472656 C 11.378906 16.40625 11.582031 16.453125 11.714844 16.585938 C 12.4375 17.292969 13.332031 17.761719 14.328125 17.78125 C 14.449219 18.007812 14.585938 18.230469 14.734375 18.4375 C 14.699219 18.445312 14.667969 18.457031 14.636719 18.46875 C 12.277344 19.316406 10.492188 21.195312 9.726562 23.472656 L 6.730469 23.472656 C 6.570312 23.472656 6.445312 23.347656 6.445312 23.191406 C 6.445312 20.101562 8.425781 17.46875 11.199219 16.472656 Z M 11.199219 16.472656 " fill-opacity="1" fill-rule="nonzero"/></g><g clip-path="url(#4eec7748e1)"><path fill="#232c33" d="M 26.0625 25.988281 C 26.0625 26.148438 25.9375 26.273438 25.777344 26.273438 L 10.457031 26.273438 C 10.296875 26.273438 10.171875 26.148438 10.171875 25.988281 C 10.171875 22.898438 12.152344 20.265625 14.925781 19.269531 C 15.105469 19.203125 15.308594 19.25 15.445312 19.386719 C 16.175781 20.105469 17.097656 20.582031 18.113281 20.582031 C 19.132812 20.582031 20.054688 20.109375 20.785156 19.386719 C 20.921875 19.25 21.121094 19.203125 21.304688 19.269531 C 24.082031 20.269531 26.0625 22.898438 26.0625 25.988281 Z M 18.121094 11.558594 C 16.117188 11.558594 14.492188 13.167969 14.492188 15.152344 C 14.492188 17.136719 16.117188 19.5625 18.121094 19.5625 C 20.121094 19.5625 21.75 17.140625 21.75 15.152344 C 21.75 13.164062 20.121094 11.558594 18.121094 11.558594 Z M 18.121094 11.558594 " fill-opacity="1" fill-rule="nonzero"/></g></svg>