<svg xmlns="http://www.w3.org/2000/svg" xmlns:xlink="http://www.w3.org/1999/xlink" width="48" zoomAndPan="magnify" viewBox="0 0 36 36.000001" height="48" preserveAspectRatio="xMidYMid meet" version="1.0"><defs><clipPath id="fd5d1b8142"><path d="M 7.492188 10.882812 L 28.652344 10.882812 L 28.652344 24.019531 L 7.492188 24.019531 Z M 7.492188 10.882812 " clip-rule="nonzero"/></clipPath></defs><path fill="#000000" d="M 18.179688 20.757812 L 22.09375 20.757812 C 22.179688 20.757812 22.25 20.726562 22.308594 20.667969 C 22.367188 20.613281 22.398438 20.542969 22.398438 20.460938 C 22.398438 20.378906 22.367188 20.308594 22.308594 20.25 C 22.25 20.191406 22.179688 20.160156 22.09375 20.160156 L 18.179688 20.160156 C 18.097656 20.160156 18.023438 20.191406 17.964844 20.25 C 17.90625 20.308594 17.878906 20.378906 17.878906 20.460938 C 17.878906 20.542969 17.90625 20.613281 17.964844 20.667969 C 18.023438 20.726562 18.097656 20.757812 18.179688 20.757812 Z M 18.179688 20.757812 " fill-opacity="1" fill-rule="nonzero"/><path fill="#000000" d="M 18.179688 19.34375 L 25.980469 19.34375 C 26.066406 19.34375 26.136719 19.316406 26.195312 19.257812 C 26.253906 19.199219 26.285156 19.128906 26.285156 19.046875 C 26.285156 18.964844 26.253906 18.894531 26.195312 18.835938 C 26.136719 18.78125 26.066406 18.75 25.980469 18.75 L 18.179688 18.75 C 18.097656 18.75 18.023438 18.78125 17.964844 18.835938 C 17.90625 18.894531 17.878906 18.964844 17.878906 19.046875 C 17.878906 19.128906 17.90625 19.199219 17.964844 19.257812 C 18.023438 19.316406 18.097656 19.34375 18.179688 19.34375 Z M 18.179688 19.34375 " fill-opacity="1" fill-rule="nonzero"/><path fill="#000000" d="M 10.109375 21.980469 L 16.289062 21.980469 C 16.371094 21.980469 16.445312 21.949219 16.503906 21.894531 C 16.5625 21.835938 16.589844 21.765625 16.589844 21.683594 L 16.589844 20.507812 L 14.429688 20.507812 C 14.347656 20.507812 14.277344 20.476562 14.214844 20.417969 C 14.15625 20.363281 14.128906 20.292969 14.128906 20.210938 C 14.128906 20.128906 14.15625 20.058594 14.214844 20 C 14.277344 19.941406 14.347656 19.910156 14.429688 19.910156 L 16.589844 19.910156 L 16.589844 19.167969 L 14.429688 19.167969 C 14.347656 19.167969 14.277344 19.136719 14.214844 19.078125 C 14.15625 19.023438 14.128906 18.953125 14.128906 18.871094 C 14.128906 18.789062 14.15625 18.71875 14.214844 18.660156 C 14.277344 18.601562 14.347656 18.570312 14.429688 18.570312 L 16.589844 18.570312 L 16.589844 17.398438 C 16.589844 17.316406 16.5625 17.246094 16.503906 17.1875 C 16.445312 17.128906 16.371094 17.097656 16.289062 17.097656 L 10.109375 17.097656 C 10.023438 17.097656 9.953125 17.128906 9.894531 17.1875 C 9.835938 17.246094 9.804688 17.316406 9.804688 17.398438 L 9.804688 18.570312 L 11.980469 18.570312 C 12.066406 18.570312 12.136719 18.601562 12.195312 18.660156 C 12.253906 18.71875 12.285156 18.789062 12.285156 18.871094 C 12.285156 18.953125 12.253906 19.023438 12.195312 19.078125 C 12.136719 19.136719 12.066406 19.167969 11.980469 19.167969 L 9.804688 19.167969 L 9.804688 19.910156 L 11.980469 19.910156 C 12.066406 19.910156 12.136719 19.941406 12.195312 20 C 12.253906 20.058594 12.285156 20.128906 12.285156 20.210938 C 12.285156 20.292969 12.253906 20.363281 12.195312 20.417969 C 12.136719 20.476562 12.066406 20.507812 11.980469 20.507812 L 9.804688 20.507812 L 9.804688 21.683594 C 9.804688 21.765625 9.835938 21.835938 9.894531 21.894531 C 9.953125 21.949219 10.023438 21.980469 10.109375 21.980469 Z M 10.109375 21.980469 " fill-opacity="1" fill-rule="nonzero"/><g clip-path="url(#fd5d1b8142)"><path fill="#000000" d="M 27.207031 10.882812 L 8.910156 10.882812 C 8.734375 10.882812 8.5625 10.917969 8.394531 10.984375 C 8.230469 11.054688 8.085938 11.148438 7.957031 11.273438 C 7.832031 11.398438 7.734375 11.542969 7.664062 11.707031 C 7.597656 11.867188 7.5625 12.039062 7.5625 12.214844 L 7.5625 22.695312 C 7.5625 22.871094 7.597656 23.039062 7.667969 23.203125 C 7.738281 23.363281 7.835938 23.507812 7.960938 23.632812 C 8.085938 23.753906 8.234375 23.851562 8.398438 23.917969 C 8.5625 23.984375 8.734375 24.019531 8.910156 24.019531 L 27.207031 24.019531 C 27.386719 24.019531 27.558594 23.984375 27.722656 23.917969 C 27.890625 23.847656 28.035156 23.753906 28.160156 23.628906 C 28.289062 23.503906 28.386719 23.359375 28.453125 23.199219 C 28.523438 23.035156 28.554688 22.863281 28.554688 22.6875 L 28.554688 12.21875 C 28.558594 12.042969 28.523438 11.871094 28.453125 11.707031 C 28.386719 11.546875 28.289062 11.402344 28.164062 11.277344 C 28.035156 11.152344 27.890625 11.054688 27.726562 10.984375 C 27.558594 10.917969 27.386719 10.882812 27.207031 10.882812 Z M 27.953125 22.695312 C 27.953125 22.898438 27.878906 23.070312 27.734375 23.214844 C 27.589844 23.359375 27.414062 23.429688 27.207031 23.429688 L 8.910156 23.429688 C 8.707031 23.429688 8.535156 23.355469 8.390625 23.210938 C 8.246094 23.070312 8.175781 22.898438 8.175781 22.695312 L 8.175781 15.597656 L 27.953125 15.597656 Z M 27.953125 13.066406 L 8.175781 13.066406 L 8.175781 12.214844 C 8.175781 12.011719 8.246094 11.839844 8.390625 11.699219 C 8.535156 11.554688 8.707031 11.480469 8.910156 11.480469 L 27.207031 11.480469 C 27.414062 11.480469 27.589844 11.550781 27.734375 11.695312 C 27.878906 11.839844 27.953125 12.011719 27.953125 12.214844 Z M 27.953125 13.066406 " fill-opacity="1" fill-rule="nonzero"/></g></svg>