<svg xmlns="http://www.w3.org/2000/svg" xmlns:xlink="http://www.w3.org/1999/xlink" width="48" zoomAndPan="magnify" viewBox="0 0 36 36.000001" height="48" preserveAspectRatio="xMidYMid meet" version="1.0"><defs><clipPath id="ff56eedd03"><path d="M 12 7.4375 L 15 7.4375 L 15 12 L 12 12 Z M 12 7.4375 " clip-rule="nonzero"/></clipPath><clipPath id="b06d9eceb5"><path d="M 8.1875 10 L 27.890625 10 L 27.890625 27.867188 L 8.1875 27.867188 Z M 8.1875 10 " clip-rule="nonzero"/></clipPath><clipPath id="4d32674758"><path d="M 21 7.4375 L 24 7.4375 L 24 12 L 21 12 Z M 21 7.4375 " clip-rule="nonzero"/></clipPath></defs><path fill="#000000" d="M 14.398438 17.855469 L 12.992188 17.855469 C 12.679688 17.855469 12.425781 18.113281 12.425781 18.425781 L 12.425781 19.847656 C 12.425781 20.164062 12.679688 20.417969 12.992188 20.417969 L 14.398438 20.417969 C 14.710938 20.417969 14.960938 20.164062 14.960938 19.847656 L 14.960938 18.425781 C 14.960938 18.113281 14.710938 17.855469 14.398438 17.855469 Z M 14.398438 17.855469 " fill-opacity="1" fill-rule="nonzero"/><path fill="#000000" d="M 14.398438 21.957031 L 12.992188 21.957031 C 12.679688 21.957031 12.425781 22.210938 12.425781 22.527344 L 12.425781 23.949219 C 12.425781 24.261719 12.679688 24.519531 12.992188 24.519531 L 14.398438 24.519531 C 14.710938 24.519531 14.960938 24.261719 14.960938 23.949219 L 14.960938 22.527344 C 14.960938 22.210938 14.710938 21.957031 14.398438 21.957031 Z M 14.398438 21.957031 " fill-opacity="1" fill-rule="nonzero"/><path fill="#000000" d="M 18.777344 17.855469 L 17.371094 17.855469 C 17.058594 17.855469 16.804688 18.113281 16.804688 18.425781 L 16.804688 19.847656 C 16.804688 20.164062 17.058594 20.417969 17.371094 20.417969 L 18.777344 20.417969 C 19.089844 20.417969 19.34375 20.164062 19.34375 19.847656 L 19.34375 18.425781 C 19.34375 18.113281 19.089844 17.855469 18.777344 17.855469 Z M 18.777344 17.855469 " fill-opacity="1" fill-rule="nonzero"/><path fill="#000000" d="M 18.777344 21.957031 L 17.371094 21.957031 C 17.058594 21.957031 16.804688 22.210938 16.804688 22.527344 L 16.804688 23.949219 C 16.804688 24.261719 17.058594 24.519531 17.371094 24.519531 L 18.777344 24.519531 C 19.089844 24.519531 19.34375 24.261719 19.34375 23.949219 L 19.34375 22.527344 C 19.34375 22.210938 19.089844 21.957031 18.777344 21.957031 Z M 18.777344 21.957031 " fill-opacity="1" fill-rule="nonzero"/><path fill="#000000" d="M 23.160156 17.855469 L 21.753906 17.855469 C 21.441406 17.855469 21.1875 18.113281 21.1875 18.425781 L 21.1875 19.847656 C 21.1875 20.164062 21.441406 20.417969 21.753906 20.417969 L 23.160156 20.417969 C 23.472656 20.417969 23.722656 20.164062 23.722656 19.847656 L 23.722656 18.425781 C 23.722656 18.113281 23.472656 17.855469 23.160156 17.855469 Z M 23.160156 17.855469 " fill-opacity="1" fill-rule="nonzero"/><path fill="#000000" d="M 23.160156 21.957031 L 21.753906 21.957031 C 21.441406 21.957031 21.1875 22.210938 21.1875 22.527344 L 21.1875 23.949219 C 21.1875 24.261719 21.441406 24.519531 21.753906 24.519531 L 23.160156 24.519531 C 23.472656 24.519531 23.722656 24.261719 23.722656 23.949219 L 23.722656 22.527344 C 23.722656 22.210938 23.472656 21.957031 23.160156 21.957031 Z M 23.160156 21.957031 " fill-opacity="1" fill-rule="nonzero"/><g clip-path="url(#ff56eedd03)"><path fill="#000000" d="M 13.507812 11.921875 C 14.058594 11.921875 14.507812 11.46875 14.507812 10.910156 L 14.507812 8.429688 C 14.507812 7.871094 14.058594 7.417969 13.507812 7.417969 C 12.953125 7.417969 12.503906 7.871094 12.503906 8.429688 L 12.503906 10.910156 C 12.503906 11.46875 12.953125 11.921875 13.507812 11.921875 Z M 13.507812 11.921875 " fill-opacity="1" fill-rule="nonzero"/></g><g clip-path="url(#b06d9eceb5)"><path fill="#000000" d="M 24.871094 10.042969 L 24.207031 10.042969 L 24.207031 10.910156 C 24.207031 11.78125 23.507812 12.488281 22.644531 12.488281 C 21.78125 12.488281 21.078125 11.78125 21.078125 10.910156 L 21.078125 10.042969 L 15.070312 10.042969 L 15.070312 10.910156 C 15.070312 11.78125 14.367188 12.488281 13.507812 12.488281 C 12.644531 12.488281 11.941406 11.78125 11.941406 10.910156 L 11.941406 10.042969 L 11.277344 10.042969 C 9.644531 10.042969 8.3125 11.382812 8.3125 13.035156 L 8.3125 24.871094 C 8.3125 26.523438 9.644531 27.867188 11.277344 27.867188 L 24.871094 27.867188 C 26.507812 27.867188 27.835938 26.523438 27.835938 24.871094 L 27.835938 13.035156 C 27.835938 11.382812 26.507812 10.042969 24.871094 10.042969 Z M 26.125 24.871094 C 26.125 25.570312 25.5625 26.136719 24.871094 26.136719 L 11.277344 26.136719 C 10.585938 26.136719 10.027344 25.570312 10.027344 24.871094 L 10.027344 16.832031 C 10.027344 16.503906 10.289062 16.238281 10.613281 16.238281 L 25.539062 16.238281 C 25.863281 16.238281 26.125 16.503906 26.125 16.832031 Z M 26.125 24.871094 " fill-opacity="1" fill-rule="nonzero"/></g><g clip-path="url(#4d32674758)"><path fill="#000000" d="M 22.644531 11.921875 C 23.195312 11.921875 23.644531 11.46875 23.644531 10.910156 L 23.644531 8.429688 C 23.644531 7.871094 23.195312 7.417969 22.644531 7.417969 C 22.089844 7.417969 21.640625 7.871094 21.640625 8.429688 L 21.640625 10.910156 C 21.640625 11.46875 22.089844 11.921875 22.644531 11.921875 Z M 22.644531 11.921875 " fill-opacity="1" fill-rule="nonzero"/></g></svg>