<svg xmlns="http://www.w3.org/2000/svg" xmlns:xlink="http://www.w3.org/1999/xlink" width="48" zoomAndPan="magnify" viewBox="0 0 36 36.000001" height="48" preserveAspectRatio="xMidYMid meet" version="1.0"><defs><clipPath id="5c7ed15ec8"><path d="M 12 7.601562 L 24 7.601562 L 24 12 L 12 12 Z M 12 7.601562 " clip-rule="nonzero"/></clipPath><clipPath id="1dbae18282"><path d="M 11.183594 12 L 25.050781 12 L 25.050781 15 L 11.183594 15 Z M 11.183594 12 " clip-rule="nonzero"/></clipPath><clipPath id="33d8ab3126"><path d="M 11.183594 16 L 25.050781 16 L 25.050781 24 L 11.183594 24 Z M 11.183594 16 " clip-rule="nonzero"/></clipPath><clipPath id="2da6f8b512"><path d="M 11.183594 24 L 25.050781 24 L 25.050781 27.300781 L 11.183594 27.300781 Z M 11.183594 24 " clip-rule="nonzero"/></clipPath></defs><g clip-path="url(#5c7ed15ec8)"><path fill="#000000" d="M 13.757812 7.636719 L 22.539062 7.636719 C 22.710938 7.636719 22.875 7.671875 23.035156 7.734375 C 23.191406 7.796875 23.332031 7.890625 23.453125 8.007812 C 23.574219 8.125 23.667969 8.261719 23.734375 8.417969 C 23.796875 8.570312 23.832031 8.734375 23.832031 8.898438 L 23.832031 10.125 C 23.832031 10.292969 23.796875 10.453125 23.734375 10.609375 C 23.667969 10.761719 23.574219 10.898438 23.453125 11.019531 C 23.332031 11.136719 23.191406 11.226562 23.035156 11.292969 C 22.875 11.355469 22.710938 11.386719 22.539062 11.386719 L 13.757812 11.386719 C 13.585938 11.386719 13.421875 11.355469 13.261719 11.292969 C 13.105469 11.226562 12.964844 11.136719 12.84375 11.019531 C 12.722656 10.898438 12.628906 10.761719 12.5625 10.609375 C 12.496094 10.453125 12.464844 10.292969 12.464844 10.125 L 12.464844 8.898438 C 12.464844 8.734375 12.496094 8.570312 12.5625 8.417969 C 12.628906 8.261719 12.722656 8.125 12.84375 8.007812 C 12.964844 7.890625 13.105469 7.796875 13.261719 7.734375 C 13.421875 7.671875 13.585938 7.636719 13.757812 7.636719 Z M 13.757812 7.636719 " fill-opacity="1" fill-rule="nonzero"/></g><path fill="#000000" d="M 18.859375 18.421875 L 18.199219 19.066406 L 19.035156 19.882812 L 19.695312 19.238281 C 19.808594 19.125 19.867188 18.988281 19.867188 18.832031 C 19.867188 18.671875 19.808594 18.535156 19.695312 18.421875 C 19.578125 18.3125 19.4375 18.257812 19.277344 18.257812 C 19.117188 18.257812 18.976562 18.3125 18.859375 18.421875 Z M 18.859375 18.421875 " fill-opacity="1" fill-rule="nonzero"/><path fill="#000000" d="M 17.261719 19.984375 L 16.601562 20.628906 C 16.484375 20.742188 16.429688 20.878906 16.425781 21.039062 C 16.425781 21.195312 16.484375 21.332031 16.601562 21.445312 C 16.714844 21.558594 16.855469 21.613281 17.019531 21.613281 C 17.183594 21.613281 17.320312 21.558594 17.4375 21.445312 L 18.097656 20.800781 Z M 17.261719 19.984375 " fill-opacity="1" fill-rule="nonzero"/><g clip-path="url(#1dbae18282)"><path fill="#000000" d="M 25.066406 14.996094 C 25.019531 14.433594 24.765625 13.988281 24.304688 13.652344 C 24.273438 13.628906 24.242188 13.609375 24.207031 13.589844 L 22.578125 12.792969 L 22.578125 12.613281 L 13.71875 12.613281 L 13.71875 12.792969 L 12.089844 13.589844 C 12.054688 13.609375 12.023438 13.628906 11.992188 13.652344 C 11.53125 13.988281 11.277344 14.433594 11.230469 14.996094 Z M 25.066406 14.996094 " fill-opacity="1" fill-rule="nonzero"/></g><g clip-path="url(#33d8ab3126)"><path fill="#000000" d="M 25.085938 16.292969 L 11.210938 16.292969 L 11.210938 23.574219 L 25.085938 23.574219 Z M 18.375 22.363281 C 18.195312 22.539062 17.988281 22.675781 17.753906 22.769531 C 17.519531 22.863281 17.273438 22.910156 17.019531 22.910156 C 16.765625 22.910156 16.519531 22.863281 16.285156 22.769531 C 16.050781 22.675781 15.84375 22.539062 15.660156 22.363281 C 15.480469 22.1875 15.34375 21.984375 15.246094 21.753906 C 15.148438 21.523438 15.101562 21.285156 15.101562 21.039062 C 15.101562 20.789062 15.148438 20.550781 15.246094 20.320312 C 15.34375 20.089844 15.480469 19.886719 15.660156 19.710938 L 17.921875 17.503906 C 18.101562 17.335938 18.3125 17.203125 18.546875 17.113281 C 18.78125 17.019531 19.023438 16.972656 19.277344 16.972656 C 19.53125 16.972656 19.773438 17.019531 20.007812 17.113281 C 20.242188 17.203125 20.453125 17.335938 20.632812 17.503906 C 20.8125 17.679688 20.953125 17.882812 21.050781 18.113281 C 21.148438 18.34375 21.195312 18.582031 21.195312 18.832031 C 21.195312 19.078125 21.148438 19.316406 21.050781 19.546875 C 20.953125 19.777344 20.8125 19.980469 20.632812 20.15625 Z M 18.375 22.363281 " fill-opacity="1" fill-rule="nonzero"/></g><g clip-path="url(#2da6f8b512)"><path fill="#000000" d="M 11.210938 24.875 L 11.210938 25.449219 C 11.210938 25.699219 11.257812 25.9375 11.355469 26.167969 C 11.453125 26.398438 11.59375 26.601562 11.773438 26.777344 C 11.953125 26.953125 12.160156 27.089844 12.394531 27.183594 C 12.628906 27.277344 12.875 27.328125 13.128906 27.328125 L 23.167969 27.328125 C 23.421875 27.328125 23.667969 27.277344 23.902344 27.183594 C 24.136719 27.089844 24.34375 26.953125 24.523438 26.777344 C 24.703125 26.601562 24.84375 26.398438 24.941406 26.167969 C 25.039062 25.9375 25.085938 25.699219 25.085938 25.449219 L 25.085938 24.875 Z M 11.210938 24.875 " fill-opacity="1" fill-rule="nonzero"/></g></svg>