<svg xmlns="http://www.w3.org/2000/svg" xmlns:xlink="http://www.w3.org/1999/xlink" width="48" zoomAndPan="magnify" viewBox="0 0 36 36.000001" height="48" preserveAspectRatio="xMidYMid meet" version="1.0"><defs><clipPath id="3567d1bcd5"><path d="M 7.210938 6.347656 L 29.101562 6.347656 L 29.101562 28.96875 L 7.210938 28.96875 Z M 7.210938 6.347656 " clip-rule="nonzero"/></clipPath></defs><g clip-path="url(#3567d1bcd5)"><path fill="#000000" d="M 16.355469 8.914062 C 16.355469 7.921875 17.164062 7.113281 18.15625 7.113281 C 19.148438 7.113281 19.957031 7.921875 19.957031 8.914062 C 19.957031 9.90625 19.148438 10.710938 18.15625 10.710938 C 17.164062 10.710938 16.355469 9.90625 16.355469 8.914062 Z M 15.6875 15.972656 C 15.6875 15.972656 15.6875 15.96875 15.6875 15.96875 C 15.765625 15.707031 15.882812 15.464844 16.035156 15.242188 L 10.480469 15.242188 L 10.480469 15.972656 Z M 24.042969 15.242188 L 20.277344 15.242188 C 20.429688 15.464844 20.546875 15.707031 20.625 15.96875 C 20.625 15.96875 20.625 15.972656 20.625 15.972656 L 25.832031 15.972656 L 25.832031 15.242188 Z M 18.175781 24.078125 L 18.132812 24.078125 C 17.332031 24.078125 16.523438 23.9375 15.730469 23.660156 L 12.996094 25.746094 L 13.484375 28.96875 L 14.914062 28.96875 L 15.15625 26.816406 C 15.167969 26.707031 15.226562 26.609375 15.320312 26.550781 L 17.957031 24.835938 C 18.078125 24.753906 18.234375 24.753906 18.355469 24.835938 L 20.992188 26.550781 C 21.082031 26.609375 21.144531 26.707031 21.15625 26.816406 L 21.398438 28.96875 L 22.824219 28.96875 L 23.3125 25.746094 L 20.578125 23.660156 C 19.789062 23.9375 18.980469 24.078125 18.175781 24.078125 Z M 24.390625 16.675781 C 24.292969 16.480469 24.101562 16.320312 23.886719 16.261719 C 23.878906 16.261719 23.875 16.257812 23.871094 16.257812 L 23.855469 16.253906 C 23.652344 16.203125 23.472656 16.226562 23.296875 16.335938 C 23.175781 16.410156 23.101562 16.523438 23.019531 16.699219 C 23 16.742188 22.980469 16.785156 22.957031 16.835938 L 22.9375 16.875 L 21.921875 19.113281 C 21.882812 19.203125 21.804688 19.273438 21.710938 19.304688 C 21.617188 19.335938 21.515625 19.332031 21.425781 19.285156 L 19.941406 18.542969 C 19.480469 18.992188 18.847656 19.265625 18.15625 19.265625 C 17.460938 19.265625 16.832031 18.992188 16.367188 18.542969 L 14.882812 19.285156 C 14.796875 19.332031 14.691406 19.335938 14.597656 19.304688 C 14.503906 19.273438 14.429688 19.203125 14.390625 19.113281 L 13.355469 16.835938 C 13.332031 16.785156 13.3125 16.742188 13.292969 16.699219 C 13.207031 16.523438 13.136719 16.410156 13.015625 16.335938 C 12.839844 16.230469 12.660156 16.203125 12.460938 16.253906 L 12.449219 16.257812 C 12.441406 16.257812 12.433594 16.261719 12.425781 16.261719 C 12.210938 16.320312 12.015625 16.476562 11.921875 16.675781 C 11.917969 16.683594 11.914062 16.691406 11.910156 16.699219 C 11.863281 16.800781 11.832031 16.945312 11.894531 17.101562 L 13.238281 20.289062 C 13.390625 20.644531 13.550781 20.910156 13.847656 21.058594 C 14.152344 21.207031 14.464844 21.21875 14.78125 21.085938 L 15.527344 20.777344 C 15.640625 20.730469 15.769531 20.742188 15.871094 20.808594 C 15.972656 20.875 16.03125 20.988281 16.03125 21.113281 L 16.03125 22.996094 C 16.734375 23.234375 17.449219 23.355469 18.15625 23.351562 L 18.175781 23.351562 C 18.878906 23.351562 19.582031 23.230469 20.277344 22.996094 L 20.277344 21.113281 C 20.277344 20.988281 20.339844 20.875 20.441406 20.808594 C 20.542969 20.742188 20.671875 20.730469 20.78125 20.777344 L 21.53125 21.085938 C 21.84375 21.21875 22.160156 21.207031 22.464844 21.058594 C 22.761719 20.910156 22.921875 20.644531 23.070312 20.289062 L 24.414062 17.101562 C 24.480469 16.945312 24.445312 16.800781 24.402344 16.699219 C 24.398438 16.691406 24.394531 16.683594 24.390625 16.675781 Z M 19.878906 16.039062 C 19.859375 15.996094 19.84375 15.949219 19.820312 15.90625 C 19.8125 15.886719 19.800781 15.867188 19.792969 15.847656 C 19.78125 15.828125 19.769531 15.804688 19.757812 15.785156 C 19.742188 15.761719 19.730469 15.738281 19.714844 15.71875 C 19.703125 15.699219 19.6875 15.675781 19.675781 15.65625 C 19.667969 15.644531 19.65625 15.628906 19.648438 15.617188 C 19.3125 15.15625 18.769531 14.855469 18.15625 14.855469 C 17.542969 14.855469 17 15.15625 16.664062 15.617188 C 16.640625 15.648438 16.617188 15.683594 16.59375 15.71875 C 16.585938 15.730469 16.578125 15.746094 16.570312 15.757812 C 16.558594 15.773438 16.550781 15.792969 16.542969 15.808594 C 16.539062 15.8125 16.539062 15.8125 16.535156 15.816406 C 16.53125 15.828125 16.527344 15.835938 16.523438 15.84375 C 16.511719 15.867188 16.5 15.886719 16.488281 15.90625 C 16.46875 15.949219 16.449219 15.996094 16.433594 16.039062 C 16.425781 16.0625 16.417969 16.085938 16.410156 16.109375 C 16.402344 16.128906 16.394531 16.152344 16.386719 16.175781 C 16.335938 16.339844 16.3125 16.515625 16.3125 16.695312 C 16.3125 17.710938 17.140625 18.539062 18.15625 18.539062 C 19.171875 18.539062 20 17.710938 20 16.695312 C 20 16.515625 19.972656 16.339844 19.925781 16.175781 C 19.917969 16.152344 19.910156 16.128906 19.902344 16.109375 C 19.894531 16.085938 19.886719 16.0625 19.878906 16.039062 Z M 18.15625 11.441406 C 17.472656 11.441406 16.855469 11.167969 16.398438 10.730469 C 15.328125 10.980469 13.914062 11.320312 13.640625 11.960938 L 12.546875 14.515625 L 13.800781 14.515625 L 14.464844 13.199219 C 14.503906 13.125 14.566406 13.0625 14.644531 13.03125 L 15.570312 12.632812 C 15.683594 12.585938 15.8125 12.597656 15.917969 12.664062 C 16.019531 12.730469 16.082031 12.84375 16.082031 12.96875 L 16.082031 14.515625 L 16.800781 14.515625 C 17.191406 14.269531 17.660156 14.128906 18.15625 14.128906 C 18.652344 14.128906 19.117188 14.269531 19.511719 14.515625 L 20.230469 14.515625 L 20.230469 12.96875 C 20.230469 12.84375 20.292969 12.730469 20.394531 12.664062 C 20.496094 12.597656 20.625 12.585938 20.738281 12.632812 L 21.667969 13.03125 C 21.746094 13.0625 21.808594 13.125 21.847656 13.199219 L 22.511719 14.515625 L 23.765625 14.515625 L 22.671875 11.960938 C 22.398438 11.320312 20.984375 10.980469 19.914062 10.730469 C 19.457031 11.167969 18.835938 11.441406 18.15625 11.441406 Z M 8.746094 17.347656 L 9.75 17.347656 L 9.75 13.867188 L 8.746094 13.867188 Z M 7.210938 16.609375 L 8.019531 16.609375 L 8.019531 14.605469 L 7.210938 14.605469 Z M 26.558594 17.347656 L 27.566406 17.347656 L 27.566406 13.867188 L 26.558594 13.867188 Z M 28.292969 14.605469 L 28.292969 16.609375 L 29.097656 16.609375 L 29.097656 14.605469 Z M 13.144531 9.957031 C 13.214844 10.019531 13.300781 10.046875 13.386719 10.046875 C 13.484375 10.046875 13.585938 10.007812 13.660156 9.925781 C 13.792969 9.773438 13.777344 9.542969 13.625 9.410156 C 13.296875 9.121094 13.109375 8.6875 13.109375 8.21875 C 13.109375 7.75 13.296875 7.3125 13.625 7.023438 C 13.777344 6.890625 13.792969 6.660156 13.660156 6.511719 C 13.527344 6.359375 13.296875 6.34375 13.144531 6.476562 C 12.65625 6.90625 12.378906 7.539062 12.378906 8.21875 C 12.378906 8.894531 12.65625 9.527344 13.144531 9.957031 Z M 14.347656 9.464844 C 14.40625 9.5 14.46875 9.515625 14.53125 9.515625 C 14.65625 9.515625 14.777344 9.449219 14.847656 9.332031 C 14.949219 9.160156 14.890625 8.9375 14.714844 8.835938 C 14.492188 8.707031 14.359375 8.476562 14.359375 8.21875 C 14.359375 7.964844 14.496094 7.726562 14.714844 7.597656 C 14.890625 7.496094 14.949219 7.273438 14.847656 7.101562 C 14.746094 6.929688 14.523438 6.871094 14.347656 6.972656 C 13.90625 7.230469 13.632812 7.707031 13.632812 8.21875 C 13.632812 8.730469 13.90625 9.207031 14.347656 9.464844 Z M 14.347656 9.464844 " fill-opacity="1" fill-rule="nonzero"/></g></svg>