<svg xmlns="http://www.w3.org/2000/svg" xmlns:xlink="http://www.w3.org/1999/xlink" width="48" zoomAndPan="magnify" viewBox="0 0 36 36.000001" height="48" preserveAspectRatio="xMidYMid meet" version="1.0"><defs><clipPath id="3f740b0888"><path d="M 9.277344 6.417969 L 26.789062 6.417969 L 26.789062 28.3125 L 9.277344 28.3125 Z M 9.277344 6.417969 " clip-rule="nonzero"/></clipPath></defs><g clip-path="url(#3f740b0888)"><path fill="#000000" d="M 22.503906 16.511719 L 22.503906 9.617188 L 9.980469 9.617188 L 9.980469 23.710938 L 18.242188 23.710938 C 18.0625 23.453125 17.90625 23.179688 17.785156 22.894531 L 12.878906 22.894531 C 12.164062 22.894531 11.578125 22.316406 11.578125 21.613281 L 11.578125 12.5625 C 11.578125 11.859375 12.164062 11.285156 12.878906 11.285156 L 19.605469 11.285156 C 20.320312 11.285156 20.90625 11.859375 20.90625 12.5625 L 20.90625 16.644531 C 21.421875 16.511719 21.960938 16.464844 22.503906 16.511719 Z M 15.3125 8.359375 C 15.121094 8.359375 14.964844 8.207031 14.964844 8.019531 C 14.964844 7.828125 15.121094 7.675781 15.3125 7.675781 L 17.171875 7.675781 C 17.363281 7.675781 17.519531 7.828125 17.519531 8.019531 C 17.519531 8.207031 17.363281 8.359375 17.171875 8.359375 Z M 21.746094 19.328125 C 21.746094 19.140625 21.902344 18.984375 22.097656 18.984375 C 22.289062 18.984375 22.445312 19.140625 22.445312 19.328125 L 22.445312 19.539062 C 22.675781 19.59375 22.878906 19.730469 23.015625 19.914062 C 23.128906 20.066406 23.09375 20.28125 22.941406 20.394531 C 22.785156 20.503906 22.566406 20.46875 22.453125 20.316406 C 22.347656 20.171875 22.207031 20.203125 22.027344 20.203125 C 21.78125 20.203125 21.648438 20.496094 21.828125 20.671875 C 21.925781 20.769531 22.03125 20.753906 22.167969 20.753906 C 23.03125 20.753906 23.476562 21.785156 22.859375 22.394531 C 22.746094 22.507812 22.605469 22.589844 22.445312 22.636719 L 22.445312 22.863281 C 22.445312 23.050781 22.289062 23.207031 22.097656 23.207031 C 21.902344 23.207031 21.746094 23.050781 21.746094 22.863281 L 21.746094 22.652344 C 21.515625 22.597656 21.3125 22.464844 21.175781 22.277344 C 21.0625 22.125 21.097656 21.910156 21.253906 21.796875 C 21.410156 21.6875 21.628906 21.722656 21.738281 21.875 C 21.847656 22.019531 21.988281 21.992188 22.167969 21.992188 C 22.410156 21.992188 22.542969 21.695312 22.363281 21.519531 C 22.265625 21.421875 22.160156 21.4375 22.027344 21.4375 C 21.160156 21.4375 20.714844 20.40625 21.332031 19.796875 C 21.449219 19.683594 21.589844 19.601562 21.746094 19.554688 Z M 22.097656 17.78125 C 23.960938 17.78125 25.46875 19.265625 25.46875 21.097656 C 25.46875 22.925781 23.960938 24.410156 22.097656 24.410156 C 20.234375 24.410156 18.722656 22.925781 18.722656 21.097656 C 18.722656 19.265625 20.234375 17.78125 22.097656 17.78125 Z M 23.988281 19.238281 C 25.03125 20.261719 25.03125 21.929688 23.988281 22.957031 C 22.941406 23.980469 21.25 23.980469 20.203125 22.957031 C 19.160156 21.929688 19.160156 20.261719 20.203125 19.238281 C 21.25 18.210938 22.941406 18.210938 23.988281 19.238281 Z M 18.832031 24.394531 L 9.980469 24.394531 L 9.980469 26.8125 C 9.980469 27.28125 10.417969 27.625 10.902344 27.625 L 21.582031 27.625 C 22.066406 27.625 22.503906 27.28125 22.503906 26.8125 L 22.503906 25.679688 C 21.105469 25.800781 19.785156 25.304688 18.832031 24.394531 Z M 23.203125 25.570312 L 23.203125 26.8125 C 23.203125 27.65625 22.445312 28.3125 21.582031 28.3125 L 10.902344 28.3125 C 10.039062 28.3125 9.28125 27.65625 9.28125 26.8125 L 9.28125 7.917969 C 9.28125 7.074219 10.039062 6.417969 10.902344 6.417969 L 21.582031 6.417969 C 22.445312 6.417969 23.203125 7.074219 23.203125 7.917969 L 23.203125 16.621094 C 25.277344 17.117188 26.777344 18.949219 26.777344 21.097656 C 26.777344 23.242188 25.277344 25.074219 23.203125 25.570312 Z M 17.550781 22.207031 L 12.878906 22.207031 C 12.550781 22.207031 12.277344 21.9375 12.277344 21.613281 L 12.277344 12.5625 C 12.277344 12.238281 12.550781 11.96875 12.878906 11.96875 L 19.605469 11.96875 C 19.9375 11.96875 20.207031 12.238281 20.207031 12.5625 L 20.207031 16.882812 C 19.613281 17.140625 19.085938 17.515625 18.652344 17.976562 L 15.433594 17.976562 C 15.238281 17.976562 15.082031 18.132812 15.082031 18.320312 C 15.082031 18.511719 15.238281 18.664062 15.433594 18.664062 L 18.117188 18.664062 C 17.9375 18.953125 17.785156 19.261719 17.671875 19.585938 L 15.433594 19.585938 C 15.238281 19.585938 15.082031 19.742188 15.082031 19.929688 C 15.082031 20.121094 15.238281 20.273438 15.433594 20.273438 L 17.488281 20.273438 C 17.371094 20.914062 17.390625 21.578125 17.550781 22.207031 Z M 24.914062 18.328125 C 26.46875 19.855469 26.46875 22.335938 24.914062 23.863281 C 23.359375 25.394531 20.835938 25.394531 19.277344 23.863281 C 17.71875 22.332031 17.726562 19.851562 19.277344 18.328125 C 20.835938 16.796875 23.359375 16.796875 24.914062 18.328125 Z M 15.433594 15.449219 C 15.238281 15.449219 15.082031 15.292969 15.082031 15.105469 C 15.082031 14.914062 15.238281 14.761719 15.433594 14.761719 L 18.800781 14.761719 C 18.992188 14.761719 19.148438 14.914062 19.148438 15.105469 C 19.148438 15.292969 18.992188 15.449219 18.800781 15.449219 Z M 14.496094 13.804688 C 14.300781 13.804688 14.144531 13.652344 14.144531 13.460938 C 14.144531 13.273438 14.300781 13.117188 14.496094 13.117188 L 17.988281 13.117188 C 18.183594 13.117188 18.339844 13.273438 18.339844 13.460938 C 18.339844 13.652344 18.183594 13.804688 17.988281 13.804688 Z M 13.683594 20.273438 C 13.492188 20.273438 13.335938 20.121094 13.335938 19.929688 C 13.335938 19.742188 13.492188 19.585938 13.683594 19.585938 L 14.109375 19.585938 C 14.300781 19.585938 14.457031 19.742188 14.457031 19.929688 C 14.457031 20.121094 14.300781 20.273438 14.109375 20.273438 Z M 13.683594 18.664062 C 13.492188 18.664062 13.335938 18.511719 13.335938 18.320312 C 13.335938 18.132812 13.492188 17.976562 13.683594 17.976562 L 14.109375 17.976562 C 14.300781 17.976562 14.457031 18.132812 14.457031 18.320312 C 14.457031 18.511719 14.300781 18.664062 14.109375 18.664062 Z M 13.683594 17.058594 C 13.492188 17.058594 13.335938 16.902344 13.335938 16.714844 C 13.335938 16.523438 13.492188 16.371094 13.683594 16.371094 L 14.109375 16.371094 C 14.300781 16.371094 14.457031 16.523438 14.457031 16.714844 C 14.457031 16.902344 14.300781 17.058594 14.109375 17.058594 Z M 15.433594 17.058594 C 15.238281 17.058594 15.082031 16.902344 15.082031 16.714844 C 15.082031 16.523438 15.238281 16.371094 15.433594 16.371094 L 18.800781 16.371094 C 18.992188 16.371094 19.148438 16.523438 19.148438 16.714844 C 19.148438 16.902344 18.992188 17.058594 18.800781 17.058594 Z M 13.683594 15.449219 C 13.492188 15.449219 13.335938 15.292969 13.335938 15.105469 C 13.335938 14.914062 13.492188 14.761719 13.683594 14.761719 L 14.109375 14.761719 C 14.300781 14.761719 14.457031 14.914062 14.457031 15.105469 C 14.457031 15.292969 14.300781 15.449219 14.109375 15.449219 Z M 16.96875 25.742188 C 17.042969 25.742188 17.109375 25.773438 17.160156 25.820312 C 17.332031 25.992188 17.203125 26.277344 16.96875 26.277344 L 15.515625 26.277344 C 15.441406 26.277344 15.375 26.246094 15.328125 26.199219 C 15.152344 26.027344 15.28125 25.742188 15.515625 25.742188 Z M 15.515625 25.058594 L 16.96875 25.058594 C 17.824219 25.058594 18.265625 26.082031 17.652344 26.683594 C 17.476562 26.855469 17.234375 26.964844 16.96875 26.964844 L 15.515625 26.964844 C 14.660156 26.964844 14.21875 25.9375 14.832031 25.335938 C 15.007812 25.164062 15.25 25.058594 15.515625 25.058594 Z M 22.503906 8.929688 L 22.503906 7.917969 C 22.503906 7.449219 22.066406 7.105469 21.582031 7.105469 L 10.902344 7.105469 C 10.417969 7.105469 9.980469 7.449219 9.980469 7.917969 L 9.980469 8.929688 Z M 22.503906 8.929688 " fill-opacity="1" fill-rule="evenodd"/></g></svg>